<?xml version="1.0" encoding="UTF-8"?>
<svg version="1.1" xmlns="http://www.w3.org/2000/svg" width="2747" height="3055">
<path d="M0 0 C1.03157227 0.24943359 1.03157227 0.24943359 2.08398438 0.50390625 C13.19289412 3.22816205 22.98840882 7.52905215 33 13 C34.05960938 13.55558594 35.11921875 14.11117188 36.2109375 14.68359375 C50.1112818 22.29047508 66.33547026 35.51160086 75 49 C75 49.66 75 50.32 75 51 C75.80695312 50.7834375 76.61390625 50.566875 77.4453125 50.34375 C96.84344764 45.89576997 118.70294296 46.00307786 138 51 C139.89878906 51.47566406 139.89878906 51.47566406 141.8359375 51.9609375 C163.68389879 57.89062955 182.75624275 69.40912688 199 85 C200.35738281 86.26263672 200.35738281 86.26263672 201.7421875 87.55078125 C208.5538551 94.06998113 214.0300427 101.00092421 219 109 C219.37898437 109.60440918 219.75796875 110.20881836 220.1484375 110.83154297 C228.69405287 124.65723025 234.11266313 139.07601225 237.5546875 154.94140625 C237.80376358 156.07669769 238.05283966 157.21198914 238.3094635 158.38168335 C242.6451896 178.36366971 246.6348009 198.42087283 250.69466019 218.46019745 C251.96629019 224.73378806 253.24095152 231.00676272 254.51538086 237.27978516 C256.50572343 247.0779227 258.49503863 256.87626776 260.48333037 266.67482162 C264.87351736 288.30982636 269.27493546 309.94254274 273.67834473 331.57485962 C274.60778756 336.140887 275.53706263 340.70694848 276.46618652 345.27304077 C282.19142485 373.40895947 287.92529895 401.54310113 293.67000961 429.67504954 C294.13372528 431.94587615 294.59742788 434.21670543 295.06112671 436.48753548 C296.47394047 443.40636461 297.8867912 450.3251862 299.29964495 457.24400717 C299.61746204 458.80037687 299.93527814 460.35674677 300.25309324 461.91311687 C301.05027756 465.81700141 301.84747493 469.72088328 302.6446991 473.62475967 C309.86840519 508.99852551 317.08365053 544.37396097 324.2578125 579.7578125 C324.40509576 580.48421889 324.55237902 581.21062528 324.7041254 581.95904398 C327.1958815 594.24878412 329.68652777 606.53874919 332.17703247 618.82874298 C343.6319081 675.35454558 355.18610105 731.8597237 366.7897644 788.35516357 C367.0013277 789.38538604 367.21289099 790.4156085 367.43086529 791.47704983 C367.82056303 793.37460859 368.21036658 795.27214562 368.60030079 797.1696558 C369.40975114 801.11124328 370.21693461 805.05306282 371 809 C372.53789229 803.92291712 373.64669007 798.89821587 374.55859375 793.67578125 C374.85812788 792.0130026 375.15871449 790.3504133 375.46020508 788.68798828 C375.61840729 787.81402405 375.7766095 786.94005981 375.93960571 786.03961182 C382.50874932 750.05850174 391.65990169 714.76578173 403 680 C403.33677765 678.96546692 403.33677765 678.96546692 403.68035889 677.91003418 C423.04189232 618.58714566 449.4265904 561.228277 482 508 C482.59474121 507.02256836 483.18948242 506.04513672 483.80224609 505.03808594 C502.1176423 474.96281823 522.18039374 445.83648257 544.61914062 418.68066406 C546.48219545 416.4131129 548.30437336 414.11418653 550.125 411.8125 C554.48691507 406.34641814 559.0119358 401.02163225 563.55126953 395.703125 C564.97737312 394.02660012 566.3938283 392.34234708 567.80859375 390.65625 C580.91329861 375.10645802 595.18523502 360.64645517 609.57568359 346.29394531 C612.02950754 343.84555784 614.47783698 341.39176468 616.92578125 338.9375 C618.51269977 337.35124123 620.09992789 335.76529213 621.6875 334.1796875 C622.40534668 333.45981659 623.12319336 332.73994568 623.86279297 331.9982605 C627.87324368 328.00617029 631.97854857 324.18366556 636.26872253 320.49316406 C638.66704001 318.42470217 640.98630641 316.27392534 643.3125 314.125 C647.77388345 310.05582609 652.35944718 306.20022184 657.05859375 302.41015625 C659.77660541 300.18304709 662.44045045 297.90786278 665.09472656 295.60595703 C671.5646749 289.99665734 678.18704613 284.65288101 685.02539062 279.49755859 C687.3340547 277.74665041 689.62798049 275.97724344 691.921875 274.20703125 C701.71768419 266.66349393 711.57611719 259.30189132 721.85693359 252.43212891 C724.23869143 250.84049169 726.61334953 249.23852191 728.98828125 247.63671875 C784.27526713 210.45101055 843.09022079 179.77633461 905.44580078 156.33740234 C907.66508755 155.50231147 909.88254228 154.66231592 912.09716797 153.81494141 C991.15687931 123.59993635 1076.94028703 108.08103602 1457.99664307 145.33721924 C1459.946657 145.98235226 1461.89781767 146.62391644 1463.84912109 147.26513672 C1489.29774236 155.67462344 1514.04112597 165.60642691 1538.51171875 176.52734375 C1539.42719482 176.93581543 1540.3426709 177.34428711 1541.28588867 177.76513672 C1543.08723181 178.58470977 1544.87938415 179.42480845 1546.66137695 180.28564453 C1553.85634831 183.72105181 1561.13150409 185.90904004 1568.8125 188 C1598.95996661 196.45846548 1628.28300896 207.21783216 1657.1774292 219.24206543 C1658.84505685 219.93556532 1660.51448009 220.62474336 1662.18408203 221.31347656 C1695.63802882 235.17564052 1729.31816333 251.46272155 1760.00634766 270.75195312 C1762.38428325 272.24056527 1764.77626892 273.7054815 1767.16796875 275.171875 C1794.44401098 291.97223536 1821.27230462 309.6527399 1846.31445312 329.66162109 C1848.02839 331.02254258 1849.75413369 332.36691403 1851.484375 333.70703125 C1859.27448167 339.74880242 1866.81124329 346.02948755 1874.25439453 352.49267578 C1875.98187975 353.98435322 1877.72090215 355.46120526 1879.46484375 356.93359375 C1886.31521024 362.72768539 1892.9786909 368.67782401 1899.49975586 374.84130859 C1902.79747824 377.95755181 1906.13631237 381.00969489 1909.53515625 384.015625 C1915.83075461 389.66446439 1921.79075659 395.64059203 1927.76000977 401.62963867 C1929.69109547 403.56610549 1931.62749882 405.49713956 1933.56445312 407.42773438 C1939.05582426 412.91614974 1944.51658422 418.38144323 1949.54711914 424.30200195 C1952.05465609 427.23258832 1954.72904739 430.00742583 1957.375 432.8125 C1962.02639178 437.78318955 1966.4515005 442.86221192 1970.70703125 448.1796875 C1972.83454422 450.7964922 1975.01975672 453.344336 1977.2355957 455.88574219 C1983.34918015 462.90705052 1989.0562807 470.17314334 1994.66015625 477.60546875 C1996.8578982 480.51623581 1999.09258992 483.39031585 2001.37109375 486.23828125 C2009.62446268 496.58410327 2017.0604569 507.33438821 2024.30859375 518.40625 C2026.66857376 522.01032472 2029.07786277 525.56669334 2031.5625 529.0859375 C2047.3000902 551.41346399 2060.74155152 575.3988631 2073.63134766 599.45068359 C2074.91582773 601.84321677 2076.2126477 604.22864984 2077.51171875 606.61328125 C2120.96657648 687.02132726 2148.04815011 776.93580821 2164.8125 887.375 C2164.90591675 888.08896942 2164.9993335 888.80293884 2165.09558105 889.5385437 C2165.84436043 895.34850764 2166.4436813 901.16868185 2167 907 C2167.12528076 908.30135895 2167.25056152 909.6027179 2167.37963867 910.94351196 C2169.7174815 935.70984292 2170.48065947 960.32754996 2170.39111328 985.19702148 C2170.37403521 989.9769495 2170.38420529 994.75637543 2170.40143681 999.53628635 C2170.50979912 1035.08186276 2168.48738549 1070.44694808 2163.50390625 1105.6640625 C2163.38825821 1106.48742096 2163.27261017 1107.31077942 2163.15345764 1108.15908813 C2151.4165298 1190.24386888 2128.0549918 1270.39954922 2092.68261719 1345.42919922 C2091.12242707 1348.74018888 2089.57899439 1352.05846087 2088.0390625 1355.37890625 C2082.34946765 1367.55769297 2076.15422495 1379.40000536 2069.59765625 1391.1328125 C2067.93723647 1394.11263675 2066.29581062 1397.10240384 2064.65625 1400.09375 C2053.70534088 1419.98078723 2041.8031069 1439.25259347 2029 1458 C2028.56236328 1458.64340332 2028.12472656 1459.28680664 2027.67382812 1459.94970703 C2018.55339233 1473.34898558 2009.26006259 1486.58595954 1999.27978516 1499.36132812 C1997.98893194 1501.01417185 1996.70334002 1502.67101604 1995.41796875 1504.328125 C1981.37990879 1522.36891156 1966.72059902 1539.92569258 1951.12353516 1556.64111328 C1949.16951396 1558.73744314 1947.22589749 1560.84225569 1945.29614258 1562.9609375 C1938.24570971 1570.68950964 1930.98115127 1578.1751843 1923.57128906 1585.55908203 C1921.7338424 1587.39110995 1919.9018835 1589.22850605 1918.0703125 1591.06640625 C1912.74586619 1596.393861 1907.4302553 1601.66884854 1901.69091797 1606.55419922 C1898.94081798 1608.90564192 1896.32587872 1611.39993163 1893.6875 1613.875 C1888.81414451 1618.41348524 1883.79696023 1622.69348797 1878.6015625 1626.86328125 C1876.05013271 1628.95882494 1873.61673227 1631.13963155 1871.1875 1633.375 C1865.68671627 1638.37492744 1859.86391009 1642.91866382 1853.98632812 1647.45947266 C1851.8945743 1649.08176452 1849.81374211 1650.71733548 1847.734375 1652.35546875 C1809.7292362 1682.23845727 1768.66792883 1708.3113306 1726 1731 C1724.44369873 1731.82951172 1724.44369873 1731.82951172 1722.85595703 1732.67578125 C1643.81230102 1774.65550805 1558.74896795 1802.20906674 1316 1828 C1314.82066895 1827.98743164 1313.64133789 1827.97486328 1312.42626953 1827.96191406 C1225.20715049 1826.65914411 1137.85627727 1809.01516107 999.32421875 1757.4765625 C998.72028793 1757.19516922 998.11635712 1756.91377594 997.49412537 1756.62385559 C996.8976973 1756.34587631 996.30126923 1756.06789703 995.68676758 1755.78149414 C983.79161876 1750.24934082 972.08115358 1745.98351743 959.43041992 1742.51538086 C913.24004912 1729.82425941 868.94747 1711.02161948 826 1690 C825.05527832 1689.54125488 824.11055664 1689.08250977 823.13720703 1688.60986328 C808.7648799 1681.62369972 794.82788078 1674.00602139 781 1666 C780.22285645 1665.55269531 779.44571289 1665.10539062 778.64501953 1664.64453125 C739.42483049 1642.04925283 701.51933159 1616.04456559 667.09375 1586.625 C664.2044868 1584.16084036 661.26481542 1581.76339 658.3125 1579.375 C653.85377884 1575.74580836 649.56202776 1571.96871044 645.3125 1568.09765625 C643.33615628 1566.30492554 641.3354327 1564.55204773 639.3125 1562.8125 C627.16478138 1552.19224304 615.68829877 1540.85033976 604.29931641 1529.4296875 C601.97803685 1527.10298555 599.65137337 1524.78176172 597.32421875 1522.4609375 C595.81999133 1520.95605012 594.31607369 1519.45085303 592.8125 1517.9453125 C592.13010254 1517.26493927 591.44770508 1516.58456604 590.74462891 1515.88357544 C586.8490396 1511.96914621 583.12951383 1507.95210206 579.5274353 1503.76554871 C577.28964066 1501.17890204 574.95624962 1498.69026799 572.625 1496.1875 C568.3312462 1491.53961458 564.2646816 1486.75583652 560.296875 1481.82421875 C558.27430677 1479.33728537 556.20752397 1476.89633224 554.11694336 1474.46655273 C547.60006064 1466.87884807 541.54339767 1458.97402442 535.51513672 1450.99560547 C534.15796597 1449.20805895 532.7890244 1447.43098692 531.41015625 1445.66015625 C519.11025568 1429.85169409 507.88087755 1413.43885719 496.9831543 1396.64135742 C496.53652435 1395.95442307 496.08989441 1395.26748871 495.62973022 1394.55973816 C494.78298319 1393.25654263 493.93841692 1391.9519268 493.09634399 1390.64570618 C491.52392655 1388.2254174 490.047348 1386.047348 488 1384 C507.40763321 1479.72481785 507.40763321 1479.72481785 526.875 1575.4375 C527.08930664 1576.48939766 527.30361328 1577.54129532 527.52441406 1578.62506866 C533.05052867 1605.74832943 538.58521545 1632.86983819 544.12361336 1659.99059296 C546.47702181 1671.5149338 548.8301633 1683.03932915 551.1832183 1694.56374216 C551.98405064 1698.48592885 552.78490308 1702.40811143 553.58580399 1706.33028412 C560.83037883 1741.80873164 568.06630184 1777.28888961 575.26171875 1812.77734375 C575.40865897 1813.50205337 575.55559919 1814.22676298 575.70699215 1814.97343349 C578.20234024 1827.28080186 580.6965891 1839.588393 583.1906662 1851.89601898 C591.74004411 1894.08428197 600.34587461 1936.26051091 609.00498199 1978.4264183 C618.30193491 2023.7022082 627.50024332 2068.99756717 636.66648388 2114.29997778 C637.18760753 2116.87553147 637.70874921 2119.45108151 638.22989655 2122.0266304 C638.92287063 2125.45136381 639.61583981 2128.87609821 640.30880356 2132.3008337 C641.84156107 2139.87594948 643.37433896 2147.45106113 644.90719414 2155.02615714 C645.24235482 2156.68246983 645.57751031 2158.33878356 645.9126606 2159.99509835 C651.96319525 2189.89669518 658.03208826 2219.79450515 664.125 2249.6875 C664.33755054 2250.73041702 664.55010109 2251.77333405 664.76909256 2252.84785461 C670.05535662 2278.78510495 675.35098926 2304.7204427 680.6471656 2330.6556704 C683.15847375 2342.9535291 685.66948048 2355.25144933 688.18034941 2367.54939771 C688.98239598 2371.47771612 689.78447168 2375.40602857 690.5866127 2379.3343277 C697.83085389 2414.81144058 705.06656489 2450.2902386 712.26171875 2485.77734375 C712.40876023 2486.50255045 712.55580171 2487.22775716 712.70729899 2487.97493982 C715.20092579 2500.27376878 717.69348669 2512.57281376 720.18575668 2524.87191772 C728.45880844 2565.69805053 736.77996252 2606.51392614 745.1562767 2647.31900024 C753.00969507 2685.57964671 760.843396 2723.84419912 768.59475708 2762.12567139 C769.52229759 2766.70630386 770.45159957 2771.28657299 771.38253784 2775.86651611 C772.457277 2781.15469179 773.52811751 2786.44364149 774.59579277 2791.73324776 C774.98443047 2793.65566297 775.37437006 2795.57781554 775.76573372 2797.49967766 C776.29935345 2800.12152899 776.8280288 2802.74433118 777.35546875 2805.36743164 C777.58580763 2806.49058619 777.58580763 2806.49058619 777.82079983 2807.63643074 C784.96066603 2843.40761704 777.01237476 2879.98378099 757.13085938 2910.33056641 C742.41977304 2932.04783936 722.2929707 2946.76080888 699 2958 C697.95972656 2958.50402344 696.91945313 2959.00804688 695.84765625 2959.52734375 C688.82362898 2962.54314695 681.51546383 2964.09944906 674.07275391 2965.72802734 C672.89045008 2965.98849539 671.70814625 2966.24896343 670.49001503 2966.51732445 C656.70767752 2969.53255604 642.88447308 2972.34737802 629.05789065 2975.15071487 C625.21160366 2975.93114958 621.36591657 2976.71453051 617.52015686 2977.49755859 C610.91330476 2978.84240166 604.30612261 2980.185612 597.69869995 2981.52764893 C587.20885181 2983.65829825 576.71971508 2985.79243664 566.23071289 2987.92724609 C564.44427031 2988.29082637 562.65782755 2988.6544058 560.87138462 2989.01798439 C558.17965011 2989.56580986 555.48791633 2990.11363892 552.79618579 2990.66148388 C547.37094215 2991.76565678 541.94564494 2992.869566 536.52030474 2993.97326434 C503.9800404 3000.5930914 471.44487213 3007.2376792 438.91162109 3013.89187622 C430.48547931 3015.61531008 422.05917363 3017.33794169 413.6328125 3019.06030273 C412.94609899 3019.20066841 412.25938549 3019.3410341 411.55186248 3019.48565328 C406.74421805 3020.46833753 401.9365638 3021.4509737 397.12890625 3022.43359375 C396.45804064 3022.57071046 395.78717504 3022.70782716 395.09598017 3022.84909892 C387.06854169 3024.48980709 379.04108732 3026.13043753 371.01361597 3027.77098483 C366.97500313 3028.59634868 362.93640385 3029.42177881 358.89781433 3030.24725676 C343.83896065 3033.3252298 328.77983177 3036.40184489 313.71987057 3039.47439575 C307.75654627 3040.69105957 301.79335619 3041.90837071 295.83053589 3043.12750244 C290.3851041 3044.24082935 284.93928701 3045.35225043 279.49315071 3046.46212578 C277.51978249 3046.86462482 275.54655603 3047.26781959 273.57348442 3047.6717701 C270.89426305 3048.22017698 268.21453711 3048.76604801 265.53466797 3049.3112793 C264.76482795 3049.46948465 263.99498793 3049.62769001 263.20181942 3049.79068947 C242.40073286 3054.00715972 219.46594493 3053.80137022 199 3048 C198.25041016 3047.79632812 197.50082031 3047.59265625 196.72851562 3047.3828125 C174.93735333 3041.32243775 148.98477269 3028.16280909 135.66699219 3009.09106445 C133.00009384 3005.25674136 133.00009384 3005.25674136 128.81567383 3003.63061523 C126.19871366 3003.7632359 123.70694742 3004.1165464 121.125 3004.5625 C119.23116283 3004.81260478 117.33661176 3005.05735942 115.44140625 3005.296875 C114.51215332 3005.42255859 113.58290039 3005.54824219 112.62548828 3005.67773438 C79.25620057 3009.77364843 44.80968944 2997.66196649 18.26171875 2977.96875 C15.79050639 2976.03174995 13.3849969 2974.0420304 11 2972 C10.16855469 2971.29101562 9.33710937 2970.58203125 8.48046875 2969.8515625 C-5.82233456 2957.32837066 -16.70466158 2942.48850095 -24.9375 2925.375 C-25.27845703 2924.67318604 -25.61941406 2923.97137207 -25.97070312 2923.24829102 C-32.86325094 2908.25632245 -35.8702446 2892.03795063 -39.10546875 2875.97265625 C-39.58589707 2873.61851818 -40.06705044 2871.26452797 -40.5488739 2868.91067505 C-41.83680798 2862.6081207 -43.11447541 2856.30352623 -44.39009857 2849.99847031 C-45.60092783 2844.01763687 -46.82118709 2838.03872393 -48.0403676 2832.05958855 C-51.13515132 2816.87995846 -54.2137443 2801.69707014 -57.28839874 2786.51335144 C-58.34549627 2781.29419943 -59.40396159 2776.07532505 -60.46240234 2770.85644531 C-63.86625108 2754.06972428 -67.26066892 2737.28111112 -70.64906311 2720.49126434 C-76.46014108 2691.69768847 -82.29871123 2662.9096943 -88.14409065 2634.12306547 C-88.56295689 2632.06024992 -88.98179048 2629.99742775 -89.40061951 2627.93460464 C-95.60777325 2597.3639956 -101.82733622 2566.79600828 -108.09765625 2536.23828125 C-108.34552698 2535.03030695 -108.59339771 2533.82233265 -108.84877968 2532.57775307 C-110.8598992 2522.7777422 -112.87188574 2512.97790933 -114.88408279 2503.17811966 C-124.51252957 2456.28275999 -134.02767101 2409.36491024 -143.51746464 2362.44132519 C-152.78533962 2316.61514846 -162.09058633 2270.79736252 -171.5 2225 C-181.25991565 2177.49667928 -190.90527654 2129.97083198 -200.51821136 2082.43759155 C-203.08414594 2069.74987652 -205.65061158 2057.06226916 -208.21875 2044.375 C-208.38599705 2043.54875626 -208.55324409 2042.72251251 -208.72555923 2041.87123108 C-215.2644707 2009.56997208 -221.86738725 1977.28215715 -228.5 1945 C-238.25991565 1897.49667928 -247.90527654 1849.97083198 -257.51821136 1802.43759155 C-260.08414594 1789.74987652 -262.65061158 1777.06226916 -265.21875 1764.375 C-265.38599705 1763.54875626 -265.55324409 1762.72251251 -265.72555923 1761.87123108 C-272.2644707 1729.56997208 -278.86738725 1697.28215715 -285.5 1665 C-292.30398692 1631.88373299 -299.0739142 1598.76096655 -305.78125 1565.625 C-305.94848784 1564.79880228 -306.11572568 1563.97260457 -306.28803134 1563.12137055 C-309.03293842 1549.56006895 -311.77574814 1535.9983432 -314.51841211 1522.43658781 C-317.08558206 1509.74269698 -319.6532786 1497.04891292 -322.22265625 1484.35546875 C-322.389966 1483.52891147 -322.55727576 1482.7023542 -322.7296555 1481.85074973 C-329.24608276 1449.66042147 -335.82706167 1417.4836622 -342.4375 1385.3125 C-352.39686247 1336.84305674 -362.23114826 1288.34895704 -372.03611279 1239.84808445 C-381.48374289 1193.11517114 -390.9661748 1146.39014199 -400.5625 1099.6875 C-407.34439324 1066.68191451 -414.09243047 1033.66988441 -420.77734375 1000.64453125 C-420.94464847 999.81799915 -421.11195319 998.99146705 -421.28432775 998.13988853 C-423.85752577 985.42685677 -426.42889227 972.71345464 -429 960 C-431.73864427 946.45814327 -434.47772297 932.91637467 -437.21875 919.375 C-437.38599288 918.54877711 -437.55323575 917.72255421 -437.7255466 916.87129426 C-444.26446301 884.57001435 -450.86738292 852.28217819 -457.5 820 C-467.25991565 772.49667928 -476.90527654 724.97083198 -486.51821136 677.43759155 C-489.08414594 664.74987652 -491.65061158 652.06226916 -494.21875 639.375 C-494.38599705 638.54875626 -494.55324409 637.72251251 -494.72555923 636.87123108 C-501.50794943 603.36722306 -508.36117764 569.87806533 -515.24091721 536.39390564 C-521.90363187 503.96410334 -528.52654733 471.52660064 -535.09765625 439.078125 C-535.27254373 438.21454439 -535.44743121 437.35096378 -535.62761831 436.46121407 C-539.26304581 418.50892869 -542.89483581 400.55590881 -546.52275276 382.60210419 C-547.96203175 375.4795597 -549.40207832 368.35717047 -550.84238958 361.23483467 C-551.31439553 358.90056883 -551.78626316 356.56627506 -552.25812149 354.23197937 C-555.96056335 335.91882844 -559.68910342 317.61124565 -563.45263672 299.31054688 C-563.82475674 297.50039046 -564.19687633 295.69023396 -564.56899548 293.88007736 C-566.18044541 286.04305662 -567.79341567 278.20635841 -569.4123044 270.37087059 C-570.07092017 267.18119081 -570.72777004 263.99114897 -571.38425565 260.80103016 C-571.68704519 259.33184034 -571.99063535 257.86281523 -572.29512668 256.39397717 C-577.22029391 232.63276407 -577.22029391 232.63276407 -577.3359375 223.05859375 C-577.34427109 222.37199677 -577.35260468 221.68539978 -577.3611908 220.97799683 C-577.38031984 218.79759463 -577.38068795 216.61797124 -577.375 214.4375 C-577.37478851 213.6881015 -577.37457703 212.938703 -577.37435913 212.16659546 C-577.34112318 200.35239667 -576.40814176 189.34997124 -573 178 C-572.67257812 176.76894531 -572.34515625 175.53789062 -572.0078125 174.26953125 C-565.88754078 153.42933596 -553.73033345 135.66601706 -539 120 C-538.13568359 119.02160156 -538.13568359 119.02160156 -537.25390625 118.0234375 C-514.20377362 93.07385073 -480.67270516 84.50691752 -448.6953125 78.1484375 C-446.04870769 77.61197554 -443.40233824 77.07445735 -440.75622559 76.5355835 C-435.13759534 75.39344054 -429.51716909 74.26054985 -423.89532471 73.13433838 C-415.74873848 71.50225791 -407.60531276 69.85482685 -399.46260905 68.20349765 C-387.39969754 65.75732145 -375.33526908 63.31875702 -363.26937795 60.88732266 C-347.49866523 57.70927431 -331.73191601 54.51217728 -315.96875 51.296875 C-314.8930242 51.07745617 -313.81729839 50.85803734 -312.70897484 50.63196945 C-307.41872068 49.55273599 -302.12856848 48.47300388 -296.83847046 47.39300537 C-290.60727508 46.12106561 -284.37556297 44.85166926 -278.14379883 43.58251953 C-250.51588123 37.95459674 -222.8978438 32.27958127 -195.28369141 26.58453369 C-161.49672462 19.616502 -127.70535861 12.67118261 -93.89599228 5.81254578 C-91.15042628 5.25516185 -88.40509047 4.69665759 -85.65982056 4.13781738 C-81.41312838 3.27350498 -77.16583291 2.4122245 -72.91802025 1.55343628 C-71.37813508 1.24167482 -69.83844586 0.92894364 -68.29897499 0.61514282 C-46.03185363 -3.92114641 -22.24976721 -5.67689534 0 0 Z " fill="#2D939D" transform="translate(577,3)"/>
<path d="M0 0 C1.03157227 0.24943359 1.03157227 0.24943359 2.08398438 0.50390625 C13.19289412 3.22816205 22.98840882 7.52905215 33 13 C34.05960938 13.55558594 35.11921875 14.11117188 36.2109375 14.68359375 C50.1112818 22.29047508 66.33547026 35.51160086 75 49 C75 49.66 75 50.32 75 51 C75.80695312 50.7834375 76.61390625 50.566875 77.4453125 50.34375 C96.84344764 45.89576997 118.70294296 46.00307786 138 51 C139.89878906 51.47566406 139.89878906 51.47566406 141.8359375 51.9609375 C163.68389879 57.89062955 182.75624275 69.40912688 199 85 C200.35738281 86.26263672 200.35738281 86.26263672 201.7421875 87.55078125 C208.5538551 94.06998113 214.0300427 101.00092421 219 109 C219.37898437 109.60440918 219.75796875 110.20881836 220.1484375 110.83154297 C228.69405287 124.65723025 234.11266313 139.07601225 237.5546875 154.94140625 C237.80376358 156.07669769 238.05283966 157.21198914 238.3094635 158.38168335 C242.6451896 178.36366971 246.6348009 198.42087283 250.69466019 218.46019745 C251.96629019 224.73378806 253.24095152 231.00676272 254.51538086 237.27978516 C256.50572343 247.0779227 258.49503863 256.87626776 260.48333037 266.67482162 C264.87351736 288.30982636 269.27493546 309.94254274 273.67834473 331.57485962 C274.60778756 336.140887 275.53706263 340.70694848 276.46618652 345.27304077 C282.19142485 373.40895947 287.92529895 401.54310113 293.67000961 429.67504954 C294.13372528 431.94587615 294.59742788 434.21670543 295.06112671 436.48753548 C296.47394047 443.40636461 297.8867912 450.3251862 299.29964495 457.24400717 C299.61746204 458.80037687 299.93527814 460.35674677 300.25309324 461.91311687 C301.05027756 465.81700141 301.84747493 469.72088328 302.6446991 473.62475967 C309.86840519 508.99852551 317.08365053 544.37396097 324.2578125 579.7578125 C324.40509576 580.48421889 324.55237902 581.21062528 324.7041254 581.95904398 C327.1958815 594.24878412 329.68652777 606.53874919 332.17703247 618.82874298 C343.6319081 675.35454558 355.18610105 731.8597237 366.7897644 788.35516357 C367.0013277 789.38538604 367.21289099 790.4156085 367.43086529 791.47704983 C367.82056303 793.37460859 368.21036658 795.27214562 368.60030079 797.1696558 C368.93056943 798.77788629 369.26018701 800.38625072 369.58893871 801.99479198 C369.92581282 803.63810574 370.26843219 805.28024077 370.6126709 806.92202759 C372.41364014 816.58400339 370.54077262 826.83602774 369.1875 836.4375 C367.52509444 848.80838088 366.28125027 861.18115532 365.3125 873.625 C365.25210541 874.38440887 365.19171082 875.14381775 365.12948608 875.92623901 C363.45692038 897.12979623 362.79169381 918.29491686 362.8125 939.5625 C362.81310425 940.71608002 362.8137085 941.86966003 362.81433105 943.05819702 C362.9346995 1028.34144019 375.98900824 1113.3274128 469.47021484 1349.32080078 C472.22652572 1354.14808382 474.90457355 1359.01886125 477.57861328 1363.89208984 C478.12557861 1364.88329834 478.12557861 1364.88329834 478.68359375 1365.89453125 C479.02758209 1366.52108612 479.37157043 1367.14764099 479.72598267 1367.79318237 C480.58013191 1369.2727161 481.48424923 1370.72442563 482.43365479 1372.14471436 C486.76937549 1378.75219647 488.53378955 1384.90867046 489.98828125 1392.62109375 C490.24392349 1393.88872559 490.49956573 1395.15635742 490.76295471 1396.46240234 C491.3298836 1399.2738712 491.88462123 1402.08738739 492.43035889 1404.90304565 C493.34221238 1409.60545784 494.28204252 1414.30205127 495.22509766 1418.99829102 C496.4810337 1425.26192811 497.7301575 1431.52686389 498.97241974 1437.7932272 C501.82429631 1452.17321415 504.73648713 1466.54070808 507.66015625 1480.90625 C508.03232962 1482.73514833 508.03232962 1482.73514833 508.41202164 1484.60099411 C509.43876473 1489.64597939 510.46571431 1494.69092253 511.49306297 1499.73578453 C513.23742159 1508.30211434 514.97880201 1516.86904324 516.71802783 1525.43641639 C522.13630121 1552.12648035 527.56736252 1578.81381214 533.04296875 1605.4921875 C533.28975624 1606.69462915 533.53654373 1607.89707081 533.79080963 1609.13595009 C535.04282827 1615.23571806 536.29517639 1621.33541834 537.54766846 1627.43508911 C547.95626097 1678.12563927 558.25948376 1728.83681239 568.51734018 1779.55805254 C577.78527208 1825.38443362 587.09054374 1871.20243019 596.5 1917 C606.25991565 1964.50332072 615.90527654 2012.02916802 625.51821136 2059.56240845 C628.08414594 2072.25012348 630.65061158 2084.93773084 633.21875 2097.625 C633.38599705 2098.45124374 633.55324409 2099.27748749 633.72555923 2100.12876892 C640.2644707 2132.43002792 646.86738725 2164.71784285 653.5 2197 C663.25991565 2244.50332072 672.90527654 2292.02916802 682.51821136 2339.56240845 C685.08414594 2352.25012348 687.65061158 2364.93773084 690.21875 2377.625 C690.38599705 2378.45124374 690.55324409 2379.27748749 690.72555923 2380.12876892 C697.26447089 2412.43002886 703.86764785 2444.71778863 710.5 2477 C721.33354499 2529.73364633 732.03388877 2582.49376418 742.7040875 2635.26066613 C744.0476137 2641.90460788 745.39134489 2648.54850817 746.73521471 2655.19238043 C747.06776555 2656.83646339 747.40030513 2658.48054864 747.73283339 2660.12463617 C752.35228517 2682.96356738 756.99183202 2705.79828707 761.65798616 2728.6277225 C762.34753022 2732.00187811 763.03657877 2735.37613489 763.72567749 2738.75038147 C766.0029645 2749.90011121 768.28173449 2761.04952169 770.57032013 2772.19693851 C771.4734598 2776.59997697 772.37331651 2781.00368182 773.27233124 2785.40756416 C773.68094662 2787.40538417 774.09100134 2789.40291049 774.50269318 2791.4000988 C780.39951344 2820.01187579 780.39951344 2820.01187579 780.3125 2834.1875 C780.30758545 2835.16726807 780.3026709 2836.14703613 780.29760742 2837.15649414 C779.71552342 2874.02479904 763.7296336 2906.77344071 737.85205078 2932.51245117 C726.39832047 2943.59629487 713.29698846 2951.10149882 699 2958 C697.95972656 2958.50402344 696.91945313 2959.00804688 695.84765625 2959.52734375 C688.82362898 2962.54314695 681.51546383 2964.09944906 674.07275391 2965.72802734 C672.89045008 2965.98849539 671.70814625 2966.24896343 670.49001503 2966.51732445 C656.70767752 2969.53255604 642.88447308 2972.34737802 629.05789065 2975.15071487 C625.21160366 2975.93114958 621.36591657 2976.71453051 617.52015686 2977.49755859 C610.91330476 2978.84240166 604.30612261 2980.185612 597.69869995 2981.52764893 C587.20885181 2983.65829825 576.71971508 2985.79243664 566.23071289 2987.92724609 C564.44427031 2988.29082637 562.65782755 2988.6544058 560.87138462 2989.01798439 C558.17965011 2989.56580986 555.48791633 2990.11363892 552.79618579 2990.66148388 C547.37094215 2991.76565678 541.94564494 2992.869566 536.52030474 2993.97326434 C503.9800404 3000.5930914 471.44487213 3007.2376792 438.91162109 3013.89187622 C430.48547931 3015.61531008 422.05917363 3017.33794169 413.6328125 3019.06030273 C412.94609899 3019.20066841 412.25938549 3019.3410341 411.55186248 3019.48565328 C406.74421805 3020.46833753 401.9365638 3021.4509737 397.12890625 3022.43359375 C396.45804064 3022.57071046 395.78717504 3022.70782716 395.09598017 3022.84909892 C387.06854169 3024.48980709 379.04108732 3026.13043753 371.01361597 3027.77098483 C366.97500313 3028.59634868 362.93640385 3029.42177881 358.89781433 3030.24725676 C343.83896065 3033.3252298 328.77983177 3036.40184489 313.71987057 3039.47439575 C307.75654627 3040.69105957 301.79335619 3041.90837071 295.83053589 3043.12750244 C290.3851041 3044.24082935 284.93928701 3045.35225043 279.49315071 3046.46212578 C277.51978249 3046.86462482 275.54655603 3047.26781959 273.57348442 3047.6717701 C270.89426305 3048.22017698 268.21453711 3048.76604801 265.53466797 3049.3112793 C264.76482795 3049.46948465 263.99498793 3049.62769001 263.20181942 3049.79068947 C242.40073286 3054.00715972 219.46594493 3053.80137022 199 3048 C198.25041016 3047.79632812 197.50082031 3047.59265625 196.72851562 3047.3828125 C174.93735333 3041.32243775 148.98477269 3028.16280909 135.66699219 3009.09106445 C133.00009384 3005.25674136 133.00009384 3005.25674136 128.81567383 3003.63061523 C126.19871366 3003.7632359 123.70694742 3004.1165464 121.125 3004.5625 C119.23116283 3004.81260478 117.33661176 3005.05735942 115.44140625 3005.296875 C114.51215332 3005.42255859 113.58290039 3005.54824219 112.62548828 3005.67773438 C79.25620057 3009.77364843 44.80968944 2997.66196649 18.26171875 2977.96875 C15.79050639 2976.03174995 13.3849969 2974.0420304 11 2972 C10.16855469 2971.29101562 9.33710937 2970.58203125 8.48046875 2969.8515625 C-5.82233456 2957.32837066 -16.70466158 2942.48850095 -24.9375 2925.375 C-25.27845703 2924.67318604 -25.61941406 2923.97137207 -25.97070312 2923.24829102 C-32.86325094 2908.25632245 -35.8702446 2892.03795063 -39.10546875 2875.97265625 C-39.58589707 2873.61851818 -40.06705044 2871.26452797 -40.5488739 2868.91067505 C-41.83680798 2862.6081207 -43.11447541 2856.30352623 -44.39009857 2849.99847031 C-45.60092783 2844.01763687 -46.82118709 2838.03872393 -48.0403676 2832.05958855 C-51.13515132 2816.87995846 -54.2137443 2801.69707014 -57.28839874 2786.51335144 C-58.34549627 2781.29419943 -59.40396159 2776.07532505 -60.46240234 2770.85644531 C-63.86625108 2754.06972428 -67.26066892 2737.28111112 -70.64906311 2720.49126434 C-76.46014108 2691.69768847 -82.29871123 2662.9096943 -88.14409065 2634.12306547 C-88.56295689 2632.06024992 -88.98179048 2629.99742775 -89.40061951 2627.93460464 C-95.60777325 2597.3639956 -101.82733622 2566.79600828 -108.09765625 2536.23828125 C-108.34552698 2535.03030695 -108.59339771 2533.82233265 -108.84877968 2532.57775307 C-110.8598992 2522.7777422 -112.87188574 2512.97790933 -114.88408279 2503.17811966 C-124.51252957 2456.28275999 -134.02767101 2409.36491024 -143.51746464 2362.44132519 C-152.78533962 2316.61514846 -162.09058633 2270.79736252 -171.5 2225 C-181.25991565 2177.49667928 -190.90527654 2129.97083198 -200.51821136 2082.43759155 C-203.08414594 2069.74987652 -205.65061158 2057.06226916 -208.21875 2044.375 C-208.38599705 2043.54875626 -208.55324409 2042.72251251 -208.72555923 2041.87123108 C-215.2644707 2009.56997208 -221.86738725 1977.28215715 -228.5 1945 C-238.25991565 1897.49667928 -247.90527654 1849.97083198 -257.51821136 1802.43759155 C-260.08414594 1789.74987652 -262.65061158 1777.06226916 -265.21875 1764.375 C-265.38599705 1763.54875626 -265.55324409 1762.72251251 -265.72555923 1761.87123108 C-272.2644707 1729.56997208 -278.86738725 1697.28215715 -285.5 1665 C-292.30398692 1631.88373299 -299.0739142 1598.76096655 -305.78125 1565.625 C-305.94848784 1564.79880228 -306.11572568 1563.97260457 -306.28803134 1563.12137055 C-309.03293842 1549.56006895 -311.77574814 1535.9983432 -314.51841211 1522.43658781 C-317.08558206 1509.74269698 -319.6532786 1497.04891292 -322.22265625 1484.35546875 C-322.389966 1483.52891147 -322.55727576 1482.7023542 -322.7296555 1481.85074973 C-329.24608276 1449.66042147 -335.82706167 1417.4836622 -342.4375 1385.3125 C-352.39686247 1336.84305674 -362.23114826 1288.34895704 -372.03611279 1239.84808445 C-381.48374289 1193.11517114 -390.9661748 1146.39014199 -400.5625 1099.6875 C-407.34439324 1066.68191451 -414.09243047 1033.66988441 -420.77734375 1000.64453125 C-420.94464847 999.81799915 -421.11195319 998.99146705 -421.28432775 998.13988853 C-423.85752577 985.42685677 -426.42889227 972.71345464 -429 960 C-431.73864427 946.45814327 -434.47772297 932.91637467 -437.21875 919.375 C-437.38599288 918.54877711 -437.55323575 917.72255421 -437.7255466 916.87129426 C-444.26446301 884.57001435 -450.86738292 852.28217819 -457.5 820 C-467.25991565 772.49667928 -476.90527654 724.97083198 -486.51821136 677.43759155 C-489.08414594 664.74987652 -491.65061158 652.06226916 -494.21875 639.375 C-494.38599705 638.54875626 -494.55324409 637.72251251 -494.72555923 636.87123108 C-501.50794943 603.36722306 -508.36117764 569.87806533 -515.24091721 536.39390564 C-521.90363187 503.96410334 -528.52654733 471.52660064 -535.09765625 439.078125 C-535.27254373 438.21454439 -535.44743121 437.35096378 -535.62761831 436.46121407 C-539.26304581 418.50892869 -542.89483581 400.55590881 -546.52275276 382.60210419 C-547.96203175 375.4795597 -549.40207832 368.35717047 -550.84238958 361.23483467 C-551.31439553 358.90056883 -551.78626316 356.56627506 -552.25812149 354.23197937 C-555.96056335 335.91882844 -559.68910342 317.61124565 -563.45263672 299.31054688 C-563.82475674 297.50039046 -564.19687633 295.69023396 -564.56899548 293.88007736 C-566.18044541 286.04305662 -567.79341567 278.20635841 -569.4123044 270.37087059 C-570.07092017 267.18119081 -570.72777004 263.99114897 -571.38425565 260.80103016 C-571.68704519 259.33184034 -571.99063535 257.86281523 -572.29512668 256.39397717 C-577.22029391 232.63276407 -577.22029391 232.63276407 -577.3359375 223.05859375 C-577.34427109 222.37199677 -577.35260468 221.68539978 -577.3611908 220.97799683 C-577.38031984 218.79759463 -577.38068795 216.61797124 -577.375 214.4375 C-577.37478851 213.6881015 -577.37457703 212.938703 -577.37435913 212.16659546 C-577.34112318 200.35239667 -576.40814176 189.34997124 -573 178 C-572.67257812 176.76894531 -572.34515625 175.53789062 -572.0078125 174.26953125 C-565.88754078 153.42933596 -553.73033345 135.66601706 -539 120 C-538.13568359 119.02160156 -538.13568359 119.02160156 -537.25390625 118.0234375 C-514.20377362 93.07385073 -480.67270516 84.50691752 -448.6953125 78.1484375 C-446.04870769 77.61197554 -443.40233824 77.07445735 -440.75622559 76.5355835 C-435.13759534 75.39344054 -429.51716909 74.26054985 -423.89532471 73.13433838 C-415.74873848 71.50225791 -407.60531276 69.85482685 -399.46260905 68.20349765 C-387.39969754 65.75732145 -375.33526908 63.31875702 -363.26937795 60.88732266 C-347.49866523 57.70927431 -331.73191601 54.51217728 -315.96875 51.296875 C-314.8930242 51.07745617 -313.81729839 50.85803734 -312.70897484 50.63196945 C-307.41872068 49.55273599 -302.12856848 48.47300388 -296.83847046 47.39300537 C-290.60727508 46.12106561 -284.37556297 44.85166926 -278.14379883 43.58251953 C-250.51588123 37.95459674 -222.8978438 32.27958127 -195.28369141 26.58453369 C-161.49672462 19.616502 -127.70535861 12.67118261 -93.89599228 5.81254578 C-91.15042628 5.25516185 -88.40509047 4.69665759 -85.65982056 4.13781738 C-81.41312838 3.27350498 -77.16583291 2.4122245 -72.91802025 1.55343628 C-71.37813508 1.24167482 -69.83844586 0.92894364 -68.29897499 0.61514282 C-46.03185363 -3.92114641 -22.24976721 -5.67689534 0 0 Z " fill="#168693" transform="translate(577,3)"/>
<path d="M0 0 C1.97734131 0.00737183 1.97734131 0.00737183 3.99462891 0.01489258 C13.7456067 0.13193312 22.81654473 0.86973158 32.25 3.3125 C33.51585937 3.62960938 34.78171875 3.94671875 36.0859375 4.2734375 C57.93389879 10.20312955 77.00624275 21.72162688 93.25 37.3125 C94.15492188 38.15425781 95.05984375 38.99601562 95.9921875 39.86328125 C102.8038551 46.38248113 108.2800427 53.31342421 113.25 61.3125 C113.62898437 61.91690918 114.00796875 62.52131836 114.3984375 63.14404297 C122.94405287 76.96973025 128.36266313 91.38851225 131.8046875 107.25390625 C132.05376358 108.38919769 132.30283966 109.52448914 132.5594635 110.69418335 C136.8951896 130.67616971 140.8848009 150.73337283 144.94466019 170.77269745 C146.21629019 177.04628806 147.49095152 183.31926272 148.76538086 189.59228516 C150.75572343 199.3904227 152.74503863 209.18876776 154.73333037 218.98732162 C159.12351736 240.62232636 163.52493546 262.25504274 167.92834473 283.88735962 C168.85778756 288.453387 169.78706263 293.01944848 170.71618652 297.58554077 C176.44142485 325.72145947 182.17529895 353.85560113 187.92000961 381.98754954 C188.38372528 384.25837615 188.84742788 386.52920543 189.31112671 388.80003548 C190.72394047 395.71886461 192.1367912 402.6376862 193.54964495 409.55650717 C193.86746204 411.11287687 194.18527814 412.66924677 194.50309324 414.22561687 C195.30027756 418.12950141 196.09747493 422.03338328 196.8946991 425.93725967 C204.11840519 461.31102551 211.33365053 496.68646097 218.5078125 532.0703125 C218.65509576 532.79671889 218.80237902 533.52312528 218.9541254 534.27154398 C221.4458815 546.56128412 223.93652777 558.85124919 226.42703247 571.14124298 C237.8819081 627.66704558 249.43610105 684.1722237 261.0397644 740.66766357 C261.2513277 741.69788604 261.46289099 742.7281085 261.68086529 743.78954983 C262.07056303 745.68710859 262.46036658 747.58464562 262.85030079 749.4821558 C263.18056943 751.09038629 263.51018701 752.69875072 263.83893871 754.30729198 C264.17581282 755.95060574 264.51843219 757.59274077 264.8626709 759.23452759 C266.66364014 768.89650339 264.79077262 779.14852774 263.4375 788.75 C261.77509444 801.12088088 260.53125027 813.49365532 259.5625 825.9375 C259.47190811 827.07661331 259.47190811 827.07661331 259.37948608 828.23873901 C257.70692038 849.44229623 257.04169381 870.60741686 257.0625 891.875 C257.06310425 893.02858002 257.0637085 894.18216003 257.06433105 895.37069702 C257.1846995 980.65394019 270.23900824 1065.6399128 363.72021484 1301.63330078 C366.47652572 1306.46058382 369.15457355 1311.33136125 371.82861328 1316.20458984 C372.37557861 1317.19579834 372.37557861 1317.19579834 372.93359375 1318.20703125 C373.27758209 1318.83358612 373.62157043 1319.46014099 373.97598267 1320.10568237 C374.83013191 1321.5852161 375.73424923 1323.03692563 376.68365479 1324.45721436 C381.01937549 1331.06469647 382.78378955 1337.22117046 384.23828125 1344.93359375 C384.49392349 1346.20122559 384.74956573 1347.46885742 385.01295471 1348.77490234 C385.5798836 1351.5863712 386.13462123 1354.39988739 386.68035889 1357.21554565 C387.59221238 1361.91795784 388.53204252 1366.61455127 389.47509766 1371.31079102 C390.7310337 1377.57442811 391.9801575 1383.83936389 393.22241974 1390.1057272 C396.07429631 1404.48571415 398.98648713 1418.85320808 401.91015625 1433.21875 C402.15827183 1434.43801556 402.40638741 1435.65728111 402.66202164 1436.91349411 C403.68876473 1441.95847939 404.71571431 1447.00342253 405.74306297 1452.04828453 C407.48742159 1460.61461434 409.22880201 1469.18154324 410.96802783 1477.74891639 C416.38630121 1504.43898035 421.81736252 1531.12631214 427.29296875 1557.8046875 C427.66314999 1559.60834998 427.66314999 1559.60834998 428.04080963 1561.44845009 C429.29282827 1567.54821806 430.54517639 1573.64791834 431.79766846 1579.74758911 C442.20626097 1630.43813927 452.50948376 1681.14931239 462.76734018 1731.87055254 C472.03527208 1777.69693362 481.34054374 1823.51493019 490.75 1869.3125 C500.50991565 1916.81582072 510.15527654 1964.34166802 519.76821136 2011.87490845 C522.33414594 2024.56262348 524.90061158 2037.25023084 527.46875 2049.9375 C527.63599705 2050.76374374 527.80324409 2051.58998749 527.97555923 2052.44126892 C534.5144707 2084.74252792 541.11738725 2117.03034285 547.75 2149.3125 C557.50991565 2196.81582072 567.15527654 2244.34166802 576.76821136 2291.87490845 C579.33414594 2304.56262348 581.90061158 2317.25023084 584.46875 2329.9375 C584.63599705 2330.76374374 584.80324409 2331.58998749 584.97555923 2332.44126892 C591.51447089 2364.74252886 598.11764785 2397.03028863 604.75 2429.3125 C615.58354499 2482.04614633 626.28388877 2534.80626418 636.9540875 2587.57316613 C638.2976137 2594.21710788 639.64134489 2600.86100817 640.98521471 2607.50488043 C641.31776555 2609.14896339 641.65030513 2610.79304864 641.98283339 2612.43713617 C646.60228517 2635.27606738 651.24183202 2658.11078707 655.90798616 2680.9402225 C656.59753022 2684.31437811 657.28657877 2687.68863489 657.97567749 2691.06288147 C660.2529645 2702.21261121 662.53173449 2713.36202169 664.82032013 2724.50943851 C665.7234598 2728.91247697 666.62331651 2733.31618182 667.52233124 2737.72006416 C667.93094662 2739.71788417 668.34100134 2741.71541049 668.75269318 2743.7125988 C674.64951344 2772.32437579 674.64951344 2772.32437579 674.5625 2786.5 C674.55758545 2787.47976807 674.5526709 2788.45953613 674.54760742 2789.46899414 C673.96552342 2826.33729904 657.9796336 2859.08594071 632.10205078 2884.82495117 C620.64832047 2895.90879487 607.54698846 2903.41399882 593.25 2910.3125 C592.20972656 2910.81652344 591.16945313 2911.32054688 590.09765625 2911.83984375 C583.07362898 2914.85564695 575.76546383 2916.41194906 568.32275391 2918.04052734 C566.54929816 2918.43122941 566.54929816 2918.43122941 564.74001503 2918.82982445 C550.95767752 2921.84505604 537.13447308 2924.65987802 523.30789065 2927.46321487 C519.46160366 2928.24364958 515.61591657 2929.02703051 511.77015686 2929.81005859 C505.16330476 2931.15490166 498.55612261 2932.498112 491.94869995 2933.84014893 C481.45885181 2935.97079825 470.96971508 2938.10493664 460.48071289 2940.23974609 C458.69427031 2940.60332637 456.90782755 2940.9669058 455.12138462 2941.33048439 C452.42965011 2941.87830986 449.73791633 2942.42613892 447.04618579 2942.97398388 C441.62094215 2944.07815678 436.19564494 2945.182066 430.77030474 2946.28576434 C398.2300404 2952.9055914 365.69487213 2959.5501792 333.16162109 2966.20437622 C324.73547931 2967.92781008 316.30917363 2969.65044169 307.8828125 2971.37280273 C307.19609899 2971.51316841 306.50938549 2971.6535341 305.80186248 2971.79815328 C300.99421805 2972.78083753 296.1865638 2973.7634737 291.37890625 2974.74609375 C290.37260784 2974.95176881 290.37260784 2974.95176881 289.34598017 2975.16159892 C281.31854169 2976.80230709 273.29108732 2978.44293753 265.26361597 2980.08348483 C261.22500313 2980.90884868 257.18640385 2981.73427881 253.14781433 2982.55975676 C238.08896065 2985.6377298 223.02983177 2988.71434489 207.96987057 2991.78689575 C202.00654627 2993.00355957 196.04335619 2994.22087071 190.08053589 2995.44000244 C184.6351041 2996.55332935 179.18928701 2997.66475043 173.74315071 2998.77462578 C171.76978249 2999.17712482 169.79655603 2999.58031959 167.82348442 2999.9842701 C165.14426305 3000.53267698 162.46453711 3001.07854801 159.78466797 3001.6237793 C159.01482795 3001.78198465 158.24498793 3001.94019001 157.45181942 3002.10318947 C136.65073286 3006.31965972 113.71594493 3006.11387022 93.25 3000.3125 C92.12561523 3000.00699219 92.12561523 3000.00699219 90.97851562 2999.6953125 C65.26593531 2992.54434596 41.95152797 2977.18940997 25.25 2956.3125 C28.30377181 2953.25872819 32.15867499 2953.29322172 36.28215027 2952.64764404 C37.23111233 2952.49247102 38.18007438 2952.337298 39.15779287 2952.17742276 C42.36073969 2951.65574199 45.56544917 2951.14581406 48.77026367 2950.63574219 C51.06297963 2950.26477909 53.35557954 2949.89309815 55.64807129 2949.52075195 C61.91895547 2948.50435736 68.19143488 2947.49813031 74.46422744 2946.49359035 C80.43353531 2945.53686562 86.40136953 2944.5710156 92.36934749 2943.60603705 C104.29573931 2941.67788312 116.2233038 2939.75708441 128.15161133 2937.84082031 C142.99557712 2935.45613942 157.83826743 2933.06361918 172.68045291 2930.66788495 C177.51213252 2929.88801396 182.34389083 2929.10863197 187.17569923 2928.32955933 C188.1974818 2928.16480608 188.1974818 2928.16480608 189.23990644 2927.99672449 C191.98387966 2927.55428868 194.72785398 2927.11185971 197.47183056 2926.6694448 C204.97517557 2925.45962454 212.478382 2924.24895632 219.98121262 2923.03594971 C228.02221608 2921.73594176 236.06345729 2920.43741437 244.10498047 2919.140625 C246.04777708 2918.82728273 246.04777708 2918.82728273 248.02982211 2918.50761032 C264.41645255 2915.86707045 280.81050326 2913.28275018 297.21703231 2910.768888 C303.16006136 2909.85589529 309.1011907 2908.93060299 315.04230982 2908.0052731 C319.49010814 2907.31404533 323.93879286 2906.63170375 328.39177513 2905.97463226 C383.41772296 2897.84646591 449.15299284 2882.97655712 490.25 2843.3125 C491.10207031 2842.52359375 491.95414063 2841.7346875 492.83203125 2840.921875 C518.81746514 2816.20502135 534.04773129 2778.68734697 535.5703125 2743.13671875 C535.62009382 2740.94552979 535.65923746 2738.75407214 535.6875 2736.5625 C535.70981689 2735.58933838 535.73213379 2734.61617676 535.75512695 2733.61352539 C535.73440803 2726.65140569 534.80071733 2720.025888 533.58496094 2713.18579102 C533.32116654 2711.68832321 533.32116654 2711.68832321 533.05204296 2710.16060352 C530.83769988 2697.77096179 528.32392314 2685.44118227 525.80920458 2673.10970783 C525.09340323 2669.59608462 524.38130614 2666.08171025 523.66867065 2662.56744385 C522.28530212 2655.7486366 520.89841078 2648.93055063 519.5102303 2642.11272156 C518.37275806 2636.52571493 517.23687668 2630.93838674 516.10195923 2625.3508606 C506.93159167 2580.20357385 497.70421111 2535.06815946 488.43643188 2489.94076538 C479.11775728 2444.5613917 469.91516577 2399.15894549 460.732162 2353.75195837 C451.46445774 2307.92639473 442.1592859 2262.10924065 432.75 2216.3125 C422.99008435 2168.80917928 413.34472346 2121.28333198 403.73178864 2073.75009155 C401.16585406 2061.06237652 398.59938842 2048.37476916 396.03125 2035.6875 C395.86400295 2034.86125626 395.69675591 2034.03501251 395.52444077 2033.18373108 C388.9855293 2000.88247208 382.38261275 1968.59465715 375.75 1936.3125 C365.99008435 1888.80917928 356.34472346 1841.28333198 346.73178864 1793.75009155 C344.16585406 1781.06237652 341.59938842 1768.37476916 339.03125 1755.6875 C338.86400295 1754.86125626 338.69675591 1754.03501251 338.52444077 1753.18373108 C331.9855293 1720.88247208 325.38261275 1688.59465715 318.75 1656.3125 C311.94601308 1623.19623299 305.1760858 1590.07346655 298.46875 1556.9375 C298.30151216 1556.11130228 298.13427432 1555.28510457 297.96196866 1554.43387055 C295.21706158 1540.87256895 292.47425186 1527.3108432 289.73158789 1513.74908781 C287.16441794 1501.05519698 284.5967214 1488.36141292 282.02734375 1475.66796875 C281.860034 1474.84141147 281.69272424 1474.0148542 281.5203445 1473.16324973 C275.00391724 1440.97292147 268.42293833 1408.7961622 261.8125 1376.625 C251.85313753 1328.15555674 242.01885174 1279.66145704 232.21388721 1231.16058445 C222.76625711 1184.42767114 213.2838252 1137.70264199 203.6875 1091 C196.90560676 1057.99441451 190.15756953 1024.98238441 183.47265625 991.95703125 C183.30535153 991.13049915 183.13804681 990.30396705 182.96567225 989.45238853 C180.39247423 976.73935677 177.82110773 964.02595464 175.25 951.3125 C172.51135573 937.77064327 169.77227703 924.22887467 167.03125 910.6875 C166.86400712 909.86127711 166.69676425 909.03505421 166.5244534 908.18379426 C159.98553699 875.88251435 153.38261708 843.59467819 146.75 811.3125 C136.99008435 763.80917928 127.34472346 716.28333198 117.73178864 668.75009155 C115.16585406 656.06237652 112.59938842 643.37476916 110.03125 630.6875 C109.86400295 629.86125626 109.69675591 629.03501251 109.52444077 628.18373108 C102.98552914 595.88247131 96.38239922 563.59470158 89.75 531.3125 C80.28263725 485.2296702 70.91393654 439.1274201 61.58431911 393.01653719 C60.88902885 389.58013673 60.19369797 386.14374449 59.49836779 382.7073521 C58.97892972 380.14023589 58.45949619 377.57311876 57.94006348 375.00600147 C56.40764811 367.43258767 54.87520997 359.85917847 53.34269428 352.28578496 C53.00758741 350.62974253 52.67248596 348.973699 52.33738995 347.31765437 C45.44870925 313.27397437 38.53848968 279.23471801 31.58911133 245.20336914 C30.94237176 242.03594972 30.29565084 238.86852649 29.64895821 235.70109749 C29.21080493 233.55511641 28.77260677 231.40914448 28.33436394 229.26318169 C25.04221452 213.1394495 21.76918613 197.01191134 18.5053196 180.8824358 C15.7776404 167.40312448 13.0442575 153.92497638 10.30757713 140.44748974 C8.45726225 131.33373988 6.61199104 122.21899811 4.7733053 113.1028949 C3.512199 106.8527805 2.24484771 100.60395159 0.97291625 94.3560313 C0.23462382 90.72840248 -0.50099174 87.10028734 -1.22912216 83.47060394 C-7.02501812 54.5975085 -13.41362143 29.03072271 -29.75 4.3125 C-23.52483879 -1.91266121 -8.2502229 -0.03654291 0 0 Z " fill="#000000" transform="translate(682.75,50.6875)"/>
<path d="M0 0 C4.99590721 0.60056798 9.53417622 1.64229494 14.35546875 3.15234375 C15.04609406 3.36769775 15.73671936 3.58305176 16.44827271 3.80493164 C18.69686715 4.5090544 20.94238827 5.22235554 23.1875 5.9375 C23.96354584 6.18331818 24.73959167 6.42913635 25.53915405 6.68240356 C50.78999344 14.69121382 75.51998368 23.89353926 100 34 C100.98709961 34.40653809 101.97419922 34.81307617 102.99121094 35.23193359 C136.50698376 49.14292038 170.25230661 65.42132694 201.00634766 84.75195312 C203.38428325 86.24056527 205.77626892 87.7054815 208.16796875 89.171875 C235.44401098 105.97223536 262.27230462 123.6527399 287.31445312 143.66162109 C289.02839 145.02254258 290.75413369 146.36691403 292.484375 147.70703125 C300.27448167 153.74880242 307.81124329 160.02948755 315.25439453 166.49267578 C316.98187975 167.98435322 318.72090215 169.46120526 320.46484375 170.93359375 C327.31521024 176.72768539 333.9786909 182.67782401 340.49975586 188.84130859 C343.79747824 191.95755181 347.13631237 195.00969489 350.53515625 198.015625 C356.83075461 203.66446439 362.79075659 209.64059203 368.76000977 215.62963867 C370.69109547 217.56610549 372.62749882 219.49713956 374.56445312 221.42773438 C380.05582426 226.91614974 385.51658422 232.38144323 390.54711914 238.30200195 C393.05465609 241.23258832 395.72904739 244.00742583 398.375 246.8125 C403.02639178 251.78318955 407.4515005 256.86221192 411.70703125 262.1796875 C413.83454422 264.7964922 416.01975672 267.344336 418.2355957 269.88574219 C424.34918015 276.90705052 430.0562807 284.17314334 435.66015625 291.60546875 C437.8578982 294.51623581 440.09258992 297.39031585 442.37109375 300.23828125 C450.62446268 310.58410327 458.0604569 321.33438821 465.30859375 332.40625 C467.66857376 336.01032472 470.07786277 339.56669334 472.5625 343.0859375 C488.3000902 365.41346399 501.74155152 389.3988631 514.63134766 413.45068359 C515.91582773 415.84321677 517.2126477 418.22864984 518.51171875 420.61328125 C561.96657648 501.02132726 589.04815011 590.93580821 605.8125 701.375 C605.90591675 702.08896942 605.9993335 702.80293884 606.09558105 703.5385437 C606.84436043 709.34850764 607.4436813 715.16868185 608 721 C608.12528076 722.30135895 608.25056152 723.6027179 608.37963867 724.94351196 C610.7174815 749.70984292 611.48065947 774.32754996 611.39111328 799.19702148 C611.37403521 803.9769495 611.38420529 808.75637543 611.40143681 813.53628635 C611.50979912 849.08186276 609.48738549 884.44694808 604.50390625 919.6640625 C604.33043419 920.89910019 604.33043419 920.89910019 604.15345764 922.15908813 C592.4165298 1004.24386888 569.0549918 1084.39954922 533.68261719 1159.42919922 C532.12242707 1162.74018888 530.57899439 1166.05846087 529.0390625 1169.37890625 C523.34946765 1181.55769297 517.15422495 1193.40000536 510.59765625 1205.1328125 C508.93723647 1208.11263675 507.29581062 1211.10240384 505.65625 1214.09375 C494.70534088 1233.98078723 482.8031069 1253.25259347 470 1272 C469.56236328 1272.64340332 469.12472656 1273.28680664 468.67382812 1273.94970703 C459.55339233 1287.34898558 450.26006259 1300.58595954 440.27978516 1313.36132812 C438.98893194 1315.01417185 437.70334002 1316.67101604 436.41796875 1318.328125 C422.37990879 1336.36891156 407.72059902 1353.92569258 392.12353516 1370.64111328 C390.16951396 1372.73744314 388.22589749 1374.84225569 386.29614258 1376.9609375 C379.24570971 1384.68950964 371.98115127 1392.1751843 364.57128906 1399.55908203 C362.7338424 1401.39110995 360.9018835 1403.22850605 359.0703125 1405.06640625 C353.74586619 1410.393861 348.4302553 1415.66884854 342.69091797 1420.55419922 C339.94081798 1422.90564192 337.32587872 1425.39993163 334.6875 1427.875 C329.81414451 1432.41348524 324.79696023 1436.69348797 319.6015625 1440.86328125 C317.05013271 1442.95882494 314.61673227 1445.13963155 312.1875 1447.375 C306.68671627 1452.37492744 300.86391009 1456.91866382 294.98632812 1461.45947266 C292.8945743 1463.08176452 290.81374211 1464.71733548 288.734375 1466.35546875 C250.7292362 1496.23845727 209.66792883 1522.3113306 167 1545 C165.96246582 1545.55300781 164.92493164 1546.10601563 163.85595703 1546.67578125 C84.81230102 1588.65550805 -0.25103205 1616.20906674 -243 1642 C-244.17933105 1641.98743164 -245.35866211 1641.97486328 -246.57373047 1641.96191406 C-333.79579029 1640.65910018 -421.12403018 1623.00372444 -577 1564 C-573.20838117 1562.73612706 -570.64027742 1563.61866161 -566.90625 1564.58984375 C-565.40824471 1564.96240882 -563.9101099 1565.33445339 -562.41186523 1565.70605469 C-561.21531815 1566.00690979 -561.21531815 1566.00690979 -559.99459839 1566.31384277 C-480.13942111 1586.27788132 -397.06963355 1593.51688064 -82 1542 C-81.32670654 1541.76625671 -80.65341309 1541.53251343 -79.9597168 1541.29168701 C-60.23235927 1534.42859974 -41.02372439 1526.59802309 -22 1518 C-21.08740417 1517.58754028 -21.08740417 1517.58754028 -20.15637207 1517.16674805 C3.18303427 1506.59778488 25.99939132 1495.39061496 48.20361328 1482.60107422 C50.89508774 1481.06006763 53.59873209 1479.54354679 56.30859375 1478.03515625 C68.65773478 1471.13348461 80.52785167 1463.63174469 92.30322266 1455.79443359 C94.81587108 1454.12251924 97.33449135 1452.4600995 99.85546875 1450.80078125 C122.5536641 1435.82355446 144.32479333 1419.6930396 165.30859375 1402.39160156 C167.73677601 1400.39381881 170.18286415 1398.41818576 172.625 1396.4375 C182.52928921 1388.30711333 192.18508202 1379.96242458 201.49902344 1371.15942383 C204.79695988 1368.04290173 208.13605276 1364.99053472 211.53515625 1361.984375 C217.83075461 1356.33553561 223.79075659 1350.35940797 229.76000977 1344.37036133 C231.69109547 1342.43389451 233.62749882 1340.50286044 235.56445312 1338.57226562 C241.05582426 1333.08385026 246.51658422 1327.61855677 251.54711914 1321.69799805 C254.05465609 1318.76741168 256.72904739 1315.99257417 259.375 1313.1875 C264.02639178 1308.21681045 268.4515005 1303.13778808 272.70703125 1297.8203125 C274.83487072 1295.2031062 277.02046803 1292.65489876 279.23657227 1290.11303711 C286.01466294 1282.32900299 292.29195897 1274.22124661 298.50097656 1265.97949219 C299.85032608 1264.19764758 301.21269282 1262.42751878 302.5859375 1260.6640625 C330.32620367 1225.0236558 354.2629151 1186.51229314 375.54541016 1146.71679688 C376.50668398 1144.92138649 377.47243002 1143.12836261 378.44287109 1141.33789062 C419.14263684 1066.18715644 446.06593919 982.59426619 473 773 C473.01095703 772.3306543 473.02191406 771.66130859 473.03320312 770.97167969 C474.36411083 685.51957597 463.88048245 599.53047749 431.68103027 494.04705811 C431.00109892 492.00330317 430.32822658 489.95734751 429.65722656 487.91064453 C414.32855384 441.24226334 394.58142155 395.50487529 370.50195312 352.67578125 C368.95257526 349.9155112 367.42090669 347.14589612 365.890625 344.375 C350.62120939 316.87224773 333.40059297 290.50480185 315 265 C314.44844238 264.23445801 313.89688477 263.46891602 313.32861328 262.68017578 C305.66160179 252.07180022 297.7135532 241.76541332 289.37646484 231.67626953 C287.53388938 229.43236688 285.73538319 227.15479002 283.9375 224.875 C276.62284332 215.7085315 268.87355642 206.88775609 260.9921875 198.20703125 C259.23806619 196.26373999 257.52027306 194.29640552 255.8125 192.3125 C245.38300405 180.41962266 234.29505487 169.19111206 223.125 158 C222.48971375 157.36212555 221.85442749 156.7242511 221.19989014 156.06704712 C212.17942166 146.99379389 212.17942166 146.99379389 202.67773438 138.43261719 C199.93080475 136.0870143 197.32149402 133.59564233 194.6875 131.125 C189.89485085 126.6662052 184.97810172 122.43879209 179.87109375 118.33984375 C177.17390854 116.14172955 174.53752499 113.89002669 171.90966797 111.61035156 C165.43512616 105.99494868 158.80592762 100.64823737 151.96142578 95.48876953 C149.69118405 93.76560124 147.43736988 92.02199031 145.18359375 90.27734375 C134.54140481 82.06197173 123.75070259 74.18547953 112.57080078 66.71875 C109.7794733 64.85256334 106.99712939 62.97338747 104.21484375 61.09375 C70.86294325 38.62929756 36.11070572 18.69584362 0 1 C0 0.67 0 0.34 0 0 Z " fill="#000000" transform="translate(2136,189)"/>
</svg>
